<svg width="18" height="18" viewBox="0 0 18 18" fill="none" xmlns="http://www.w3.org/2000/svg">
<path d="M12.6751 2.33268C14.2918 2.33268 15.5918 3.64102 15.5918 5.24935C15.5918 6.82435 14.3418 8.10768 12.7834 8.16602C12.7168 8.15768 12.6418 8.15768 12.5668 8.16602M14.2834 15.666C14.8834 15.541 15.4501 15.2993 15.9168 14.941C17.2168 13.966 17.2168 12.3577 15.9168 11.3827C15.4584 11.0327 14.9001 10.7993 14.3084 10.666M6.63341 8.05768C6.55008 8.04935 6.45008 8.04935 6.35841 8.05768C4.37508 7.99102 2.80008 6.36602 2.80008 4.36602C2.80008 2.32435 4.45008 0.666016 6.50008 0.666016C8.54175 0.666016 10.2001 2.32435 10.2001 4.36602C10.1917 6.36602 8.61675 7.99102 6.63341 8.05768ZM2.46672 11.1327C0.450057 12.4827 0.450057 14.6827 2.46672 16.0243C4.75839 17.5577 8.51672 17.5577 10.8084 16.0243C12.8251 14.6743 12.8251 12.4743 10.8084 11.1327C8.52506 9.60768 4.76672 9.60768 2.46672 11.1327Z" stroke="#475569" stroke-width="1.25" stroke-linecap="round" stroke-linejoin="round"/>
</svg>
