<svg width="18" height="18" viewBox="0 0 18 18" fill="none" xmlns="http://www.w3.org/2000/svg">
<path d="M11.1083 6.8929L6.89164 11.1096M11.1083 6.8929C10.5666 6.35124 9.82497 6.0179 8.99997 6.0179C7.34997 6.0179 6.01664 7.35124 6.01664 9.00124C6.01664 9.82624 6.34997 10.5679 6.89164 11.1096M11.1083 6.8929L17.3333 0.667969M6.89164 11.1096L0.666626 17.3347M13.85 3.80962C12.3916 2.70962 10.725 2.10962 8.99996 2.10962C6.05829 2.10962 3.31662 3.84295 1.40829 6.84295C0.65829 8.01795 0.65829 9.99295 1.40829 11.168C2.06662 12.2013 2.83329 13.093 3.66662 13.8096M6.01664 15.2762C6.96664 15.6762 7.97497 15.8929 8.99997 15.8929C11.9416 15.8929 14.6833 14.1596 16.5916 11.1596C17.3416 9.98458 17.3416 8.00958 16.5916 6.83458C16.3166 6.40124 16.0166 5.99291 15.7083 5.60958M11.925 9.58459C11.7083 10.7596 10.75 11.7179 9.57496 11.9346" stroke="#132339" stroke-width="1.25" stroke-linecap="round" stroke-linejoin="round"/>
</svg>
