<svg width="18" height="16" viewBox="0 0 18 16" fill="none" xmlns="http://www.w3.org/2000/svg">
<path d="M11.9833 8.00152C11.9833 9.65152 10.65 10.9849 8.99998 10.9849C7.34998 10.9849 6.01664 9.65152 6.01664 8.00152C6.01664 6.35152 7.34998 5.01819 8.99998 5.01819C10.65 5.01819 11.9833 6.35152 11.9833 8.00152Z" stroke="#132339" stroke-width="1.25" stroke-linecap="round" stroke-linejoin="round"/>
<path d="M8.99996 14.8932C11.9416 14.8932 14.6833 13.1599 16.5916 10.1599C17.3416 8.9849 17.3416 7.0099 16.5916 5.8349C14.6833 2.8349 11.9416 1.10156 8.99996 1.10156C6.05829 1.10156 3.31663 2.8349 1.40829 5.8349C0.658295 7.0099 0.658295 8.9849 1.40829 10.1599C3.31663 13.1599 6.05829 14.8932 8.99996 14.8932Z" stroke="#132339" stroke-width="1.25" stroke-linecap="round" stroke-linejoin="round"/>
</svg>
