<svg width="112" height="48" viewBox="0 0 112 48" fill="none" xmlns="http://www.w3.org/2000/svg">
<path d="M10.1545 10.3799H26.5274L37.3941 21.343L30.8079 27.635V16.967H16.739L10.1545 10.3799Z" fill="url(#paint0_linear_13293_6322)"/>
<path d="M30.808 27.6349V14.6985L37.3942 21.3429L30.808 27.6349Z" fill="url(#paint1_linear_13293_6322)"/>
<path d="M37.3941 37.6214H21.0212L10.1545 26.6583L16.7403 20.3663V31.0343H30.8097L37.3941 37.6214Z" fill="url(#paint2_linear_13293_6322)"/>
<path d="M16.7403 20.3663V33.3028L10.1545 26.6583L16.7403 20.3663Z" fill="url(#paint3_linear_13293_6322)"/>
<path d="M58.7227 20.571C58.7227 21.6634 59.2254 22.2096 60.2312 22.2096C60.7858 22.2096 61.4796 22.019 62.3116 21.6376C63.1441 21.2567 63.8369 20.7105 64.3921 19.9994C64.4267 19.9305 64.4441 19.8305 64.4441 19.7003C64.4441 19.5701 64.3703 19.3883 64.2227 19.1541C64.0756 18.9198 63.9369 18.803 63.8067 18.803C63.6765 18.803 63.5765 18.8381 63.5076 18.907C62.5716 19.7914 61.7738 20.303 61.1152 20.4412C61.0978 20.4412 61.0325 20.4456 60.9201 20.4541C60.8072 20.463 60.7507 20.3758 60.7507 20.1941C60.7507 20.0123 60.7676 19.7998 60.8027 19.5567C60.8374 19.3141 61.0756 18.5207 61.5178 17.1772C61.9601 15.8336 62.1809 14.971 62.1809 14.5892C62.1809 14.3465 62.0507 14.1172 61.7907 13.8998C61.5307 13.6834 61.2272 13.575 60.8805 13.575C60.2045 13.575 59.4325 13.987 58.5658 14.8105C57.6987 15.6345 56.8143 16.8261 55.9134 18.3865C56.1561 16.9652 56.4765 15.6816 56.8756 14.5376C56.8929 14.4856 56.9018 14.3861 56.9018 14.2385C56.9018 14.091 56.8321 13.9483 56.6938 13.8092C56.5547 13.6705 56.3818 13.6012 56.1738 13.6012C55.6361 13.6012 55.2543 13.9132 55.0294 14.5376C54.3969 16.2394 54.0263 17.8954 53.9169 19.5052C52.9125 20.2505 51.8592 20.6234 50.7565 20.6234C49.7507 20.6234 49.1267 20.251 48.8841 19.5052C50.4614 19.1758 51.6409 18.7163 52.4209 18.1265C53.2014 17.5372 53.5912 16.7656 53.5912 15.8118C53.5912 15.1358 53.3569 14.5985 52.8889 14.1994C52.4205 13.8007 51.8307 13.6012 51.1201 13.6012C49.9236 13.6012 48.9049 14.1518 48.0641 15.2527C47.2227 16.3541 46.8027 17.5456 46.8027 18.8287C46.8027 19.1852 46.8374 19.515 46.9063 19.8181C45.6756 20.4238 44.6338 20.727 43.7809 20.727C43.3649 20.727 43.0485 20.6581 42.8316 20.519C42.6143 20.3803 42.5067 20.207 42.5067 19.999C45.2112 17.5718 46.6809 16.2323 46.9152 15.9807C47.1489 15.7296 47.2663 15.2914 47.2663 14.6674C47.2663 14.4767 47.1796 14.3078 47.0063 14.1603C46.8329 14.0132 46.6161 13.9394 46.3561 13.9394L41.9347 13.9656C41.5014 13.9656 41.2845 14.1825 41.2845 14.6158C41.2845 14.8412 41.3365 15.0541 41.4405 15.2532C41.5445 15.4527 41.6489 15.5523 41.7525 15.5523C42.5498 15.5523 43.8156 15.4834 45.5498 15.3443L41.6747 18.6212C41.0156 19.1936 40.6863 19.7785 40.6863 20.3767C40.6863 20.975 40.9418 21.4474 41.4534 21.7941C41.9645 22.1412 42.6365 22.3141 43.4689 22.3141C44.8138 22.3141 46.1587 21.9003 47.5036 21.0741C47.6125 21.207 47.7343 21.3296 47.8689 21.443C48.5796 22.0412 49.4427 22.3403 50.4569 22.3403C51.4712 22.3403 52.4463 22.0847 53.3827 21.5732C53.5912 21.4594 53.7863 21.343 53.9698 21.2247C54.1041 21.8696 54.3961 22.1981 54.8467 22.2105C55.1761 22.2105 55.4143 22.1372 55.5618 21.9896C55.7089 21.8425 55.8867 21.5083 56.0952 20.9883C56.3036 20.4683 56.8796 19.5798 57.8249 18.3225C58.7698 17.0656 59.3894 16.3763 59.6845 16.255H59.7103C59.7449 16.255 59.7623 16.2941 59.7623 16.3718C59.7623 16.4496 59.5889 17.0265 59.2423 18.1012C58.8952 19.1767 58.7223 19.9998 58.7223 20.5718L58.7227 20.571ZM49.5343 16.267C50.0543 15.6167 50.5961 15.2918 51.1596 15.2918C51.7232 15.2918 52.0049 15.535 52.0049 16.0198C52.0049 16.835 50.9209 17.6154 48.7538 18.3607C48.7538 17.6154 49.0138 16.9172 49.5343 16.267Z" fill="#212839"/>
<path d="M46.9271 25.8039C46.3178 25.4239 45.5915 25.2336 44.748 25.2336C43.9044 25.2336 43.2093 25.4199 42.6004 25.7919C41.9915 26.1643 41.52 26.6848 41.1866 27.3536C40.8533 28.0225 40.6866 28.7972 40.6866 29.6772C40.6866 30.5572 40.8506 31.3239 41.1786 31.9928C41.5066 32.6616 41.9742 33.1865 42.5804 33.5665C43.1871 33.9465 43.9093 34.1368 44.7475 34.1368C45.5858 34.1368 46.3093 33.9479 46.9186 33.5705C47.528 33.1932 47.9964 32.6696 48.3244 32.0008C48.6524 31.3319 48.8164 30.5572 48.8164 29.6772C48.8164 28.7972 48.6538 28.0399 48.3284 27.3732C48.0031 26.7065 47.536 26.1834 46.9266 25.8034L46.9271 25.8039ZM46.6969 31.9425C46.2675 32.5256 45.6178 32.8172 44.748 32.8172C43.8782 32.8172 43.2564 32.531 42.8186 31.9581C42.3813 31.3856 42.1626 30.6252 42.1626 29.6776C42.1626 29.0634 42.2564 28.5216 42.444 28.0532C42.6315 27.5848 42.9151 27.2176 43.2951 26.9519C43.6751 26.6861 44.1595 26.5536 44.7475 26.5536C45.6115 26.5536 46.26 26.8376 46.6924 27.4048C47.1244 27.9723 47.3409 28.7301 47.3409 29.6776C47.3409 30.6252 47.1262 31.3594 46.6964 31.9425H46.6969Z" fill="#212839"/>
<path d="M56.0952 25.8154C55.5303 25.4274 54.8574 25.2336 54.0765 25.2336C53.2957 25.2336 52.617 25.4279 52.073 25.8154C51.8321 25.987 51.6174 26.1865 51.4285 26.4132V25.4679H50.1868V37.6514H51.5845V33.1216C51.7321 33.2781 51.8934 33.4203 52.069 33.5474C52.6103 33.9403 53.277 34.1372 54.0681 34.1372C54.8592 34.1372 55.5299 33.9421 56.0948 33.5514C56.6597 33.1608 57.0934 32.6288 57.3952 31.9541C57.697 31.2799 57.8481 30.5212 57.8481 29.6776C57.8481 28.8341 57.697 28.0768 57.3952 27.4048C57.093 26.7332 56.6597 26.2034 56.0948 25.8154H56.0952ZM56.0992 31.2981C55.917 31.7799 55.6423 32.1612 55.2752 32.4421C54.9081 32.7234 54.4486 32.8639 53.897 32.8639C53.3454 32.8639 52.8632 32.727 52.4988 32.4536C52.1343 32.1803 51.865 31.803 51.6903 31.3212C51.5157 30.8394 51.4285 30.2914 51.4285 29.6772C51.4285 29.063 51.517 28.5083 51.6943 28.0292C51.8712 27.5501 52.1392 27.1768 52.4988 26.9083C52.8579 26.6403 53.3112 26.5061 53.8579 26.5061C54.4045 26.5061 54.9019 26.6465 55.2717 26.9279C55.6414 27.2092 55.917 27.5892 56.0997 28.0683C56.2819 28.5474 56.373 29.0834 56.373 29.6772C56.373 30.271 56.2819 30.8163 56.0997 31.2976L56.0992 31.2981Z" fill="#212839"/>
<path d="M65.0764 25.8194C64.4799 25.4288 63.7577 25.2336 62.9093 25.2336C62.0608 25.2336 61.3799 25.4172 60.7733 25.7843C60.1666 26.1514 59.6942 26.6719 59.3559 27.3461C59.0173 28.0203 58.8484 28.8185 58.8484 29.7399C58.8484 30.6612 59.0199 31.3892 59.3639 32.0479C59.7075 32.7065 60.1879 33.2194 60.8048 33.5865C61.4217 33.9536 62.1439 34.1372 62.9719 34.1372C63.7999 34.1372 64.5271 33.9328 65.1862 33.5243C65.8448 33.1154 66.3382 32.539 66.6662 31.7945L65.3306 31.3336C65.0964 31.8128 64.7733 32.1799 64.3622 32.435C63.9506 32.6901 63.4666 32.8176 62.9097 32.8176C62.0817 32.8176 61.4439 32.5443 60.9964 31.9976C60.6088 31.5248 60.3897 30.8843 60.3373 30.0763H66.8071C66.8488 29.0768 66.7199 28.215 66.4204 27.4914C66.1208 26.7679 65.6733 26.2105 65.0773 25.8199L65.0764 25.8194ZM60.9959 27.311C61.4435 26.759 62.0973 26.483 62.9564 26.483C63.7582 26.483 64.3622 26.7394 64.7684 27.2523C65.0893 27.6576 65.2875 28.227 65.3648 28.959H60.3662C60.4497 28.2745 60.6599 27.7252 60.9959 27.311Z" fill="#212839"/>
<path d="M71.7173 25.4173C71.4306 25.4355 71.1497 25.4902 70.8737 25.5813C70.5977 25.6724 70.3506 25.8066 70.132 25.9835C69.9342 26.124 69.756 26.304 69.5968 26.5226C69.5302 26.6142 69.4693 26.7097 69.4133 26.8084V25.468H68.1715V33.9026H69.5697V29.6697C69.5697 29.3364 69.5982 29.0097 69.6555 28.6897C69.7128 28.3697 69.8155 28.0728 69.964 27.7995C70.1124 27.5262 70.3222 27.2906 70.5928 27.0928C70.8897 26.8795 71.2124 26.7546 71.5613 26.7182C71.9102 26.6817 72.2302 26.7 72.5217 26.7728V25.4684C72.272 25.4164 72.0035 25.3995 71.7173 25.4177V25.4173Z" fill="#212839"/>
<path d="M79.8487 26.8816C79.6092 26.3296 79.2149 25.9172 78.6652 25.6439C78.1158 25.3705 77.4585 25.2336 76.6932 25.2336C75.7403 25.2336 74.9723 25.4448 74.3892 25.8661C73.8061 26.2879 73.4127 26.8683 73.2101 27.6079L74.5296 28.0061C74.6856 27.4905 74.9554 27.1159 75.3381 26.8812C75.7207 26.647 76.1669 26.5296 76.6772 26.5296C77.4478 26.5296 77.9892 26.7105 78.3016 27.0723C78.5825 27.3976 78.7323 27.8781 78.7523 28.5123C78.4532 28.5532 78.1416 28.5954 77.8172 28.6381C77.3069 28.7056 76.8043 28.7799 76.3096 28.8608C75.8149 28.9416 75.3674 29.0363 74.9665 29.1456C74.5394 29.2705 74.1709 29.4425 73.8612 29.6612C73.5514 29.8799 73.3132 30.1505 73.1465 30.4732C72.9798 30.7963 72.8967 31.179 72.8967 31.6212C72.8967 32.0634 73.0047 32.491 73.2207 32.871C73.4367 33.251 73.7572 33.5572 74.1816 33.7888C74.6061 34.0203 75.1332 34.1363 75.763 34.1363C76.575 34.1363 77.2674 33.963 77.8403 33.6168C78.2567 33.3652 78.6052 33.0225 78.8869 32.5905V33.9016H80.1212V28.6848C80.1212 28.3514 80.1056 28.0328 80.0741 27.7279C80.043 27.4234 79.9674 27.1408 79.8478 26.8803L79.8487 26.8816ZM78.5994 31.0288C78.5318 31.3776 78.3856 31.699 78.1621 31.9932C77.9381 32.2874 77.6429 32.5243 77.2758 32.7039C76.9087 32.8834 76.4754 32.9732 75.9754 32.9732C75.5745 32.9732 75.2501 32.9083 75.0029 32.7781C74.7554 32.6479 74.5736 32.479 74.4563 32.2705C74.3389 32.0625 74.2807 31.8439 74.2807 31.6145C74.2807 31.3541 74.3416 31.1341 74.4643 30.9545C74.5865 30.775 74.7478 30.6265 74.9487 30.5092C75.1492 30.3919 75.3638 30.2972 75.5932 30.2243C75.9056 30.1359 76.2554 30.0603 76.6434 29.9976C77.0309 29.935 77.4452 29.8754 77.8852 29.8181C78.1661 29.7816 78.4509 29.7421 78.7372 29.7012C78.7345 29.8336 78.7305 29.9865 78.7247 30.1616C78.7145 30.4794 78.6727 30.7683 78.5998 31.0288H78.5994Z" fill="#212839"/>
<path d="M83.8414 23.1252H82.4512V25.4684H80.741V26.6164H82.4512V30.7168C82.4512 31.1492 82.4574 31.5355 82.4707 31.8764C82.4841 32.2172 82.5734 32.5546 82.7401 32.8879C82.933 33.2732 83.2205 33.5555 83.6032 33.7355C83.9859 33.915 84.4205 34.0141 84.9072 34.0324C85.3943 34.0506 85.8872 34.0075 86.3876 33.9035V32.7084C85.8094 32.7968 85.3161 32.8124 84.9072 32.755C84.4983 32.6977 84.2005 32.5026 84.013 32.1692C83.9143 31.9924 83.8605 31.7812 83.853 31.5368C83.8454 31.2919 83.8414 30.9977 83.8414 30.6541V26.6164H86.3876V25.4684H83.8414V23.1252Z" fill="#212839"/>
<path d="M93.1008 25.8039C92.4915 25.4239 91.7653 25.2336 90.9217 25.2336C90.0782 25.2336 89.3831 25.4199 88.7742 25.7919C88.1648 26.1643 87.6937 26.6848 87.3608 27.3536C87.0275 28.0225 86.8608 28.7972 86.8608 29.6772C86.8608 30.5572 87.0248 31.3239 87.3528 31.9928C87.6808 32.6616 88.148 33.1865 88.7546 33.5665C89.3613 33.9465 90.0835 34.1368 90.9217 34.1368C91.76 34.1368 92.4835 33.9479 93.0928 33.5705C93.7022 33.1932 94.1706 32.6696 94.4986 32.0008C94.8266 31.3319 94.9906 30.5572 94.9906 29.6772C94.9906 28.7972 94.8275 28.0399 94.5026 27.3732C94.1773 26.7065 93.7097 26.1834 93.1008 25.8034V25.8039ZM92.8702 31.9425C92.4408 32.5256 91.7911 32.8172 90.9217 32.8172C90.0524 32.8172 89.4302 32.531 88.9928 31.9581C88.5555 31.3856 88.3368 30.6252 88.3368 29.6776C88.3368 29.0634 88.4306 28.5216 88.6177 28.0532C88.8053 27.5848 89.0893 27.2176 89.4693 26.9519C89.8493 26.6861 90.3333 26.5536 90.9217 26.5536C91.7862 26.5536 92.4342 26.8376 92.8666 27.4048C93.2986 27.9723 93.5146 28.7301 93.5146 29.6776C93.5146 30.6252 93.3 31.3594 92.8702 31.9425Z" fill="#212839"/>
<path d="M99.9142 25.4175C99.6276 25.4357 99.3467 25.4903 99.0707 25.5815C98.7947 25.6726 98.5476 25.8068 98.3289 25.9837C98.1311 26.1241 97.9529 26.3041 97.7942 26.5228C97.7276 26.6143 97.6667 26.7099 97.6107 26.809V25.4686H96.3689V33.9032H97.7667V29.6704C97.7667 29.337 97.7956 29.0104 97.8529 28.6904C97.9098 28.3704 98.0129 28.0735 98.1613 27.8001C98.3098 27.5268 98.5191 27.2912 98.7902 27.0935C99.0871 26.8801 99.4098 26.7552 99.7587 26.7188C100.108 26.6823 100.428 26.7006 100.72 26.7735V25.469C100.47 25.417 100.201 25.4001 99.9151 25.4183L99.9142 25.4175Z" fill="#212839"/>
<defs>
<linearGradient id="paint0_linear_13293_6322" x1="6.82565" y1="19.0074" x2="34.7239" y2="19.0074" gradientUnits="userSpaceOnUse">
<stop stop-color="#00F78E"/>
<stop offset="0.24" stop-color="#00E987"/>
<stop offset="0.68" stop-color="#00C475"/>
<stop offset="1" stop-color="#00A666"/>
</linearGradient>
<linearGradient id="paint1_linear_13293_6322" x1="23.4929" y1="27.4825" x2="39.6591" y2="13.5256" gradientUnits="userSpaceOnUse">
<stop offset="0.35" stop-color="#00F78E"/>
<stop offset="1" stop-color="#00A666"/>
</linearGradient>
<linearGradient id="paint2_linear_13293_6322" x1="7.78832" y1="28.9939" x2="77.6763" y2="28.9939" gradientUnits="userSpaceOnUse">
<stop stop-color="#04218B"/>
<stop offset="0.02" stop-color="#032D95"/>
<stop offset="0.09" stop-color="#025BBB"/>
<stop offset="0.17" stop-color="#017FD8"/>
<stop offset="0.23" stop-color="#0098ED"/>
<stop offset="0.29" stop-color="#00A8FA"/>
<stop offset="0.34" stop-color="#00AEFF"/>
</linearGradient>
<linearGradient id="paint3_linear_13293_6322" x1="6.0501" y1="38.441" x2="24.9617" y2="16.8117" gradientUnits="userSpaceOnUse">
<stop stop-color="#04218B"/>
<stop offset="0.18" stop-color="#0256B6"/>
<stop offset="0.37" stop-color="#0185DD"/>
<stop offset="0.51" stop-color="#00A3F5"/>
<stop offset="0.59" stop-color="#00AEFF"/>
</linearGradient>
</defs>
</svg>
