
<svg width="20" height="20" viewBox="0 0 20 20" fill="none" xmlns="http://www.w3.org/2000/svg">
<path d="M8.33334 15.8334C8.33334 16.75 9.08334 17.5 10 17.5C10.9167 17.5 11.6667 16.75 11.6667 15.8334C11.6667 14.9167 10.9167 14.1667 10 14.1667C9.08334 14.1667 8.33334 14.9167 8.33334 15.8334Z" stroke="#475569" stroke-width="1.25"/>
<path d="M8.33334 4.16667C8.33334 5.08333 9.08334 5.83333 10 5.83333C10.9167 5.83333 11.6667 5.08333 11.6667 4.16667C11.6667 3.25 10.9167 2.5 10 2.5C9.08334 2.5 8.33334 3.25 8.33334 4.16667Z" stroke="#475569" stroke-width="1.25"/>
<path d="M8.33334 10C8.33334 10.9167 9.08334 11.6667 10 11.6667C10.9167 11.6667 11.6667 10.9167 11.6667 10C11.6667 9.08334 10.9167 8.33334 10 8.33334C9.08334 8.33334 8.33334 9.08334 8.33334 10Z" stroke="#475569" stroke-width="1.25"/>
</svg>
