<svg width="15" height="15" viewBox="0 0 20 20" fill="none" xmlns="http://www.w3.org/2000/svg">
<path d="M10 12.5C11.3807 12.5 12.5 11.3807 12.5 10C12.5 8.61929 11.3807 7.5 10 7.5C8.61929 7.5 7.5 8.61929 7.5 10C7.5 11.3807 8.61929 12.5 10 12.5Z" stroke="#475569" stroke-width="1.25" stroke-miterlimit="10" stroke-linecap="round" stroke-linejoin="round"/>
<path d="M1.66666 10.7319V9.26523C1.66666 8.39856 2.37499 7.6819 3.24999 7.6819C4.75832 7.6819 5.37499 6.61523 4.61666 5.3069C4.18332 4.5569 4.44166 3.5819 5.19999 3.14856L6.64166 2.32356C7.29999 1.9319 8.14999 2.16523 8.54166 2.82356L8.63332 2.9819C9.38332 4.29023 10.6167 4.29023 11.375 2.9819L11.4667 2.82356C11.8583 2.16523 12.7083 1.9319 13.3667 2.32356L14.8083 3.14856C15.5667 3.5819 15.825 4.5569 15.3917 5.3069C14.6333 6.61523 15.25 7.6819 16.7583 7.6819C17.625 7.6819 18.3417 8.39023 18.3417 9.26523V10.7319C18.3417 11.5986 17.6333 12.3152 16.7583 12.3152C15.25 12.3152 14.6333 13.3819 15.3917 14.6902C15.825 15.4486 15.5667 16.4152 14.8083 16.8486L13.3667 17.6736C12.7083 18.0652 11.8583 17.8319 11.4667 17.1736L11.375 17.0152C10.625 15.7069 9.39166 15.7069 8.63332 17.0152L8.54166 17.1736C8.14999 17.8319 7.29999 18.0652 6.64166 17.6736L5.19999 16.8486C4.44166 16.4152 4.18332 15.4402 4.61666 14.6902C5.37499 13.3819 4.75832 12.3152 3.24999 12.3152C2.37499 12.3152 1.66666 11.5986 1.66666 10.7319Z" stroke="#475569" stroke-width="1.25" stroke-miterlimit="10" stroke-linecap="round" stroke-linejoin="round"/>
</svg>
