<svg width="56" height="52" viewBox="0 0 56 52" fill="none" xmlns="http://www.w3.org/2000/svg">
<path d="M39.0525 29.5276L35.6488 28.3169C33.4476 27.5344 32.4673 25.168 33.4703 23.0582L35.0208 19.7965C34.1228 18.6695 33.0997 17.6463 31.9726 16.7484L28.7109 18.2988C26.601 19.3019 24.2347 18.3215 23.4522 16.1203L22.2415 12.7166C21.5341 12.6368 20.8151 12.596 20.0866 12.596C19.3582 12.596 18.6391 12.6367 17.9317 12.7166L16.721 16.1203C15.9385 18.3215 13.5721 19.3019 11.4623 18.2988L8.20052 16.7484C7.07356 17.6463 6.05034 18.6695 5.15242 19.7965L6.70285 23.0582C7.70592 25.168 6.72559 27.5344 4.5244 28.3169L1.12066 29.5276C1.04086 30.2351 1.00006 30.9541 1.00006 31.6825C1.00006 32.411 1.04082 33.13 1.12066 33.8374L4.5244 35.0481C6.72564 35.8306 7.70592 38.197 6.70285 40.3068L5.15242 43.5685C6.05034 44.6956 7.07352 45.7188 8.20052 46.6167L11.4623 45.0662C13.5721 44.0632 15.9385 45.0435 16.721 47.2447L17.9317 50.6485C18.6391 50.7282 19.3582 50.7691 20.0866 50.7691C20.8151 50.7691 21.5341 50.7283 22.2415 50.6485L23.4522 47.2447C24.2347 45.0435 26.601 44.0632 28.7109 45.0662L31.9726 46.6167C33.0997 45.7188 34.1228 44.6956 35.0208 43.5685L33.4703 40.3068C32.4673 38.197 33.4476 35.8306 35.6488 35.0481L39.0525 33.8374C39.1323 33.13 39.1731 32.411 39.1731 31.6825C39.1731 30.9541 39.1323 30.2351 39.0525 29.5276Z" stroke="#132339" stroke-width="1.5" stroke-miterlimit="10" stroke-linecap="round" stroke-linejoin="round"/>
<path d="M26.8901 38.4867C30.6479 34.7289 30.6479 28.6362 26.8901 24.8784C23.1323 21.1206 17.0396 21.1205 13.2818 24.8784C9.52397 28.6362 9.52399 34.7288 13.2818 38.4867C17.0397 42.2445 23.1323 42.2445 26.8901 38.4867Z" stroke="#132339" stroke-width="1.5" stroke-miterlimit="10" stroke-linecap="round" stroke-linejoin="round"/>
<path d="M26.8567 13.9122L27.7563 13.5923C29.4869 12.9766 30.2579 11.116 29.4689 9.45705L28.2501 6.89244C28.9563 6.00654 29.7607 5.20216 30.6466 4.49601L33.2111 5.71482C34.8701 6.50376 36.7312 5.73284 37.3464 4.00222L38.2979 1.32565C38.8543 1.26301 39.4198 1.23083 39.9925 1.23083C40.5652 1.23083 41.1306 1.26301 41.6871 1.32565L42.6386 4.00222C43.2543 5.73284 45.1149 6.50376 46.7738 5.71482L49.3384 4.49601C50.2243 5.20216 51.0287 6.00654 51.7348 6.89244L50.5156 9.45705C49.7271 11.116 50.498 12.9766 52.2286 13.5923L54.9052 14.5442C54.9679 15.1002 55.0001 15.6656 55.0001 16.2384C55.0001 16.8111 54.9679 17.3765 54.9052 17.9329L52.2286 18.8845C50.498 19.5001 49.7271 21.3607 50.5156 23.0196L51.7348 25.5843C51.0287 26.4702 50.2243 27.2746 49.3384 27.9807L46.7738 26.7619C45.1149 25.973 43.2543 26.7439 42.6386 28.4745L42.4082 29.1232" stroke="#0055FF" stroke-width="1.5" stroke-miterlimit="10" stroke-linecap="round" stroke-linejoin="round"/>
<path d="M37.3161 23.3174C38.1482 23.6322 39.0503 23.8044 39.9925 23.8044C44.171 23.8044 47.5584 20.4169 47.5584 16.2385C47.5584 12.0599 44.171 8.67249 39.9925 8.67249C36.8547 8.67249 34.1631 10.5824 33.017 13.303" stroke="#0055FF" stroke-width="1.5" stroke-miterlimit="10" stroke-linecap="round" stroke-linejoin="round"/>
</svg>
