
<svg width="18" height="18" viewBox="0 0 18 18" fill="none" xmlns="http://www.w3.org/2000/svg">
<path d="M11.4749 13.1666H10.8499H11.4749ZM8.99996 2.54163C8.65479 2.54163 8.37496 2.82145 8.37496 3.16663C8.37496 3.5118 8.65479 3.79163 8.99996 3.79163V2.54163ZM12.3333 6.09163L12.7448 6.56202L12.7456 6.56136L12.3333 6.09163ZM5.67496 11.9166L6.08533 12.388L6.08649 12.387L5.67496 11.9166ZM8.99996 15.4583C9.34514 15.4583 9.62496 15.1785 9.62496 14.8333C9.62496 14.4881 9.34514 14.2083 8.99996 14.2083V15.4583ZM3.57181 2.95829C3.22663 2.95829 2.94681 3.23811 2.94681 3.58329C2.94681 3.92847 3.22663 4.20829 3.57181 4.20829V2.95829ZM3.58143 4.20829C3.92661 4.20829 4.20643 3.92847 4.20643 3.58329C4.20643 3.23811 3.92661 2.95829 3.58143 2.95829V4.20829ZM14.4051 13.7916C14.06 13.7916 13.7801 14.0714 13.7801 14.4166C13.7801 14.7618 14.06 15.0416 14.4051 15.0416V13.7916ZM14.4148 15.0416C14.7599 15.0416 15.0398 14.7618 15.0398 14.4166C15.0398 14.0714 14.7599 13.7916 14.4148 13.7916V15.0416ZM5.84994 3.58329C5.84994 4.84895 4.82392 5.87496 3.55827 5.87496V7.12496C5.51428 7.12496 7.09994 5.5393 7.09994 3.58329H5.84994ZM3.55827 5.87496C2.29262 5.87496 1.2666 4.84895 1.2666 3.58329H0.0166016C0.0166016 5.5393 1.60226 7.12496 3.55827 7.12496V5.87496ZM1.2666 3.58329C1.2666 2.31764 2.29262 1.29163 3.55827 1.29163V0.041626C1.60226 0.041626 0.0166016 1.62728 0.0166016 3.58329H1.2666ZM3.55827 1.29163C4.82392 1.29163 5.84994 2.31764 5.84994 3.58329H7.09994C7.09994 1.62728 5.51428 0.041626 3.55827 0.041626V1.29163ZM13.1416 12.125H15.6416V10.875H13.1416V12.125ZM15.6416 12.125C16.2131 12.125 16.6833 12.5951 16.6833 13.1666H17.9333C17.9333 11.9048 16.9034 10.875 15.6416 10.875V12.125ZM16.6833 13.1666V15.6666H17.9333V13.1666H16.6833ZM16.6833 15.6666C16.6833 16.2381 16.2131 16.7083 15.6416 16.7083V17.9583C16.9034 17.9583 17.9333 16.9285 17.9333 15.6666H16.6833ZM15.6416 16.7083H13.1416V17.9583H15.6416V16.7083ZM13.1416 16.7083C12.5701 16.7083 12.0999 16.2381 12.0999 15.6666H10.8499C10.8499 16.9285 11.8798 17.9583 13.1416 17.9583V16.7083ZM12.0999 15.6666V13.1666H10.8499V15.6666H12.0999ZM12.0999 13.1666C12.0999 12.5951 12.5701 12.125 13.1416 12.125V10.875C11.8798 10.875 10.8499 11.9048 10.8499 13.1666H12.0999ZM8.99996 3.79163H11.2333V2.54163H8.99996V3.79163ZM11.2333 3.79163C12.1968 3.79163 12.6471 4.98459 11.921 5.62189L12.7456 6.56136C14.3361 5.16533 13.3531 2.54163 11.2333 2.54163V3.79163ZM11.9218 5.62123L5.26344 11.4462L6.08649 12.387L12.7448 6.56202L11.9218 5.62123ZM5.2646 11.4452C3.6696 12.8337 4.65646 15.4583 6.76663 15.4583V14.2083C5.81014 14.2083 5.36366 13.0162 6.08533 12.388L5.2646 11.4452ZM6.76663 15.4583H8.99996V14.2083H6.76663V15.4583ZM3.57181 4.20829H3.58143V2.95829H3.57181V4.20829ZM14.4051 15.0416H14.4148V13.7916H14.4051V15.0416Z" fill="#475569"/>
</svg>
