<svg width="64" height="64" viewBox="0 0 64 64" fill="none" xmlns="http://www.w3.org/2000/svg">
<path d="M44.2709 16.9323C47.4529 19.5237 49.7328 23.0559 50.784 27.0227C51.8351 30.9894 51.6034 35.1872 50.1221 39.0142C48.6409 42.8412 45.9861 46.1011 42.5383 48.3265C39.0904 50.552 35.0266 51.6288 30.9291 51.4027" stroke="#132339" stroke-width="1.5" stroke-miterlimit="10" stroke-linecap="round" stroke-linejoin="round"/>
<path d="M21.0604 48.0604C17.38 45.5535 14.6724 41.8587 13.3904 37.5942C12.1085 33.3297 12.3301 28.7542 14.0181 24.6336C15.7062 20.5129 18.7583 17.0971 22.6637 14.9576C26.569 12.8181 31.0907 12.0848 35.4721 12.8805" stroke="#132339" stroke-width="1.5" stroke-miterlimit="10" stroke-linecap="round" stroke-linejoin="round"/>
<path d="M28.2313 25.3375V38.6625" stroke="#0055FF" stroke-width="1.5" stroke-miterlimit="10" stroke-linecap="round" stroke-linejoin="round"/>
<path d="M35.7687 25.3375V38.6625" stroke="#0055FF" stroke-width="1.5" stroke-miterlimit="10" stroke-linecap="round" stroke-linejoin="round"/>
</svg>
