<svg width="20" height="20" viewBox="0 0 20 20" fill="none" xmlns="http://www.w3.org/2000/svg">
<path d="M14.1418 12.0331C15.2835 12.2248 16.5418 12.0248 17.4251 11.4331C18.6001 10.6498 18.6001 9.36648 17.4251 8.58314C16.5335 7.99148 15.2585 7.79147 14.1168 7.99147M5.83341 12.0331C4.69174 12.2248 3.43341 12.0248 2.55007 11.4331C1.37507 10.6498 1.37507 9.36648 2.55007 8.58314C3.44174 7.99148 4.71674 7.79147 5.8584 7.99147M15.0001 5.96651C14.9501 5.95817 14.8918 5.95817 14.8418 5.96651C13.6918 5.92484 12.7751 4.98317 12.7751 3.81651C12.7751 2.62484 13.7334 1.6665 14.9251 1.6665C16.1168 1.6665 17.0751 2.63317 17.0751 3.81651C17.0668 4.98317 16.1501 5.92484 15.0001 5.96651ZM4.97506 5.96655C5.02506 5.95821 5.08339 5.95821 5.13339 5.96655C6.28339 5.92488 7.20005 4.98321 7.20005 3.81655C7.20005 2.62488 6.24172 1.66654 5.05006 1.66654C3.85839 1.66654 2.90005 2.63321 2.90005 3.81655C2.90839 4.98321 3.82506 5.92488 4.97506 5.96655ZM10 12.1915C9.95004 12.1832 9.89171 12.1832 9.84171 12.1915C8.69171 12.1499 7.77504 11.2082 7.77504 10.0415C7.77504 8.84985 8.73338 7.89152 9.92504 7.89152C11.1167 7.89152 12.075 8.85819 12.075 10.0415C12.0667 11.2082 11.15 12.1582 10 12.1915ZM7.57506 14.8164C6.40006 15.5998 6.40006 16.8831 7.57506 17.6664C8.90839 18.5581 11.0917 18.5581 12.4251 17.6664C13.6001 16.8831 13.6001 15.5998 12.4251 14.8164C11.1001 13.9331 8.90839 13.9331 7.57506 14.8164Z" stroke="#475569" stroke-width="1.25" stroke-linecap="round" stroke-linejoin="round"/>
</svg>
