<svg version="1.1" id="Layer_1" xmlns="http://www.w3.org/2000/svg" xmlns:xlink="http://www.w3.org/1999/xlink" x="0px" y="0px"
	 width="100%" viewBox="0 0 4500 4500" enable-background="new 0 0 4500 4500" xml:space="preserve">
<path fill="#FFFFFF" opacity="0.000000" stroke="none" 
	d="
M3092.000000,4504.000000 
	C2061.333252,4504.000000 1032.666626,4504.000000 4.000000,4504.000000 
	C4.000000,3004.000000 4.000000,1504.000000 4.000000,4.000001 
	C1504.000000,4.000000 3004.000000,4.000000 4504.000000,4.000000 
	C4504.000000,1504.000000 4504.000000,3004.000000 4504.000000,4504.000000 
	C4034.000000,4504.000000 3564.000000,4504.000000 3092.000000,4504.000000 
M2906.000000,3852.339355 
	C3219.926270,3852.218262 3533.852295,3852.097412 3847.778564,3851.950684 
	C3848.369873,3851.950439 3849.103027,3851.723877 3849.514648,3851.333496 
	C3849.964844,3850.906982 3850.117676,3850.166504 3850.877930,3848.541016 
	C3847.257324,3844.587891 3843.489014,3840.155762 3839.395020,3836.048584 
	C3692.582031,3688.770020 3545.789307,3541.470703 3398.881104,3394.287109 
	C3299.523438,3294.743408 3200.051025,3195.313965 3100.499756,3095.963623 
	C3080.577148,3076.081787 3089.421387,3079.730957 3060.728027,3079.726074 
	C2528.810791,3079.637207 1996.893677,3079.660645 1464.976440,3079.659912 
	C1458.977417,3079.659912 1452.964355,3079.898193 1446.984375,3079.558838 
	C1443.245972,3079.346436 1439.557373,3078.257568 1436.373901,3077.661133 
	C1435.866455,3075.852539 1435.674072,3075.214111 1435.509766,3074.568115 
	C1435.346313,3073.925293 1435.132935,3073.281250 1435.079346,3072.626709 
	C1434.970825,3071.299316 1434.948853,3069.964355 1434.905029,3068.632324 
	C1434.883057,3067.966309 1434.890991,3067.299316 1434.886719,3066.632812 
	C1434.882446,3065.966309 1434.876709,3065.299561 1434.876709,3064.633057 
	C1434.874634,2658.696289 1434.873047,2252.759521 1434.870728,1846.822632 
	C1434.870728,1844.822998 1434.882080,1842.822998 1434.845581,1840.823853 
	C1434.821289,1839.493164 1434.739014,1838.162720 1434.648438,1836.834473 
	C1434.603149,1836.170898 1434.663086,1835.399170 1434.342285,1834.883545 
	C1434.021484,1834.367798 1433.285156,1834.110596 1432.731079,1833.740112 
	C1432.137939,1833.596558 1431.457275,1833.194946 1430.968872,1833.360596 
	C1429.744019,1833.775635 1428.364746,1834.194946 1427.467285,1835.052124 
	C1175.159546,2076.008789 922.885986,2317.000732 670.639587,2558.021484 
	C667.850830,2560.686279 665.432312,2563.738525 662.158569,2567.365967 
	C665.695068,2571.354980 668.562256,2574.915527 671.760254,2578.148926 
	C743.877563,2651.056396 816.002686,2723.956055 888.185852,2796.798584 
	C963.245911,2872.543457 1038.390991,2948.204590 1113.457642,3023.943115 
	C1186.643555,3097.783936 1259.766602,3171.686768 1332.937378,3245.542480 
	C1371.869995,3284.838867 1410.803833,3324.134033 1449.810791,3363.356445 
	C1517.020264,3430.937744 1584.288452,3498.460449 1651.527954,3566.011963 
	C1654.348999,3568.845947 1657.127563,3571.721924 1659.930908,3574.573486 
	C1699.581543,3614.904297 1739.165161,3655.301270 1778.904419,3695.544434 
	C1815.898926,3733.008301 1853.043091,3770.324463 1890.155151,3807.672363 
	C1905.127563,3822.739258 1920.189575,3837.717285 1934.814209,3852.339355 
	C2258.137695,3852.339355 2580.068848,3852.339355 2906.000000,3852.339355 
M3369.312012,1452.691040 
	C3303.182373,1385.941895 3237.054932,1319.190552 3170.922607,1252.444092 
	C3093.581787,1174.385010 3016.238037,1096.328613 2938.892334,1018.274414 
	C2903.705566,982.765442 2868.542480,947.233093 2833.311768,911.767700 
	C2778.820312,856.913086 2724.254395,802.131958 2669.773926,747.266418 
	C2650.050293,727.403503 2630.508789,707.359802 2610.829346,687.453003 
	C2601.480469,677.995789 2592.001953,668.666321 2582.158203,658.856323 
	C2573.341064,658.856323 2564.708740,658.856323 2556.076416,658.856323 
	C1935.462280,658.856323 1314.848145,658.856262 694.234070,658.857117 
	C687.567993,658.857117 680.898987,658.755188 674.237183,658.926880 
	C671.192627,659.005249 667.399292,657.980591 666.092773,663.167419 
	C709.430359,706.954956 752.802612,751.141785 796.568115,794.935669 
	C1006.256531,1004.759949 1216.050659,1214.478516 1425.821167,1424.220703 
	C1427.698975,1426.098511 1429.755493,1427.799072 1431.754517,1429.552856 
	C1432.251587,1429.989258 1432.817139,1430.378174 1433.411011,1430.665039 
	C1433.991699,1430.945435 1434.648804,1431.067627 1436.735962,1431.708862 
	C1980.551147,1431.708862 2525.829834,1431.708496 3071.108643,1431.723145 
	C3073.098389,1431.723267 3075.091309,1431.904175 3077.076172,1432.077759 
	C3077.726562,1432.134766 3078.384033,1432.373779 3078.986572,1432.644897 
	C3079.558105,1432.902100 3080.061279,1433.310181 3081.675781,1434.344360 
	C3083.894287,1441.208740 3082.814697,1449.221924 3082.815918,1457.061890 
	C3082.869629,1855.028198 3082.862793,2252.994629 3082.863281,2650.960938 
	C3082.863281,2656.960449 3082.679932,2662.968750 3082.958740,2668.955322 
	C3083.097168,2671.935303 3081.631836,2675.713623 3086.893311,2678.122314 
	C3090.922607,2674.552490 3095.409912,2670.833496 3099.611084,2666.815430 
	C3148.167236,2620.378662 3196.651855,2573.866211 3245.216064,2527.437744 
	C3272.590088,2501.267334 3300.120605,2475.260254 3327.503906,2449.099121 
	C3388.609375,2390.720703 3449.682861,2332.308594 3510.736328,2273.875488 
	C3535.285156,2250.380127 3559.684326,2226.728271 3584.261719,2203.262695 
	C3626.662598,2162.779541 3669.238281,2122.479004 3711.558838,2081.912354 
	C3729.809814,2064.417725 3747.365967,2046.197510 3765.667969,2028.758301 
	C3791.666992,2003.984619 3818.113525,1979.681152 3844.232178,1955.032227 
	C3847.957764,1951.516479 3850.918213,1947.189941 3854.525879,1942.889160 
	C3850.120850,1938.110962 3846.658447,1934.107178 3842.939209,1930.358154 
	C3796.935303,1883.985352 3750.873779,1837.669678 3704.870605,1791.296143 
	C3677.176514,1763.379028 3649.584229,1735.360840 3621.901611,1707.432373 
	C3538.383301,1623.173706 3454.843018,1538.936768 3369.312012,1452.691040 
z"/>
<path fill="#0182DB" opacity="1.000000" stroke="none" 
	d="
M2904.000000,3852.339355 
	C2580.068848,3852.339355 2258.137695,3852.339355 1934.814209,3852.339355 
	C1920.189575,3837.717285 1905.127563,3822.739258 1890.155151,3807.672363 
	C1853.043091,3770.324463 1815.898926,3733.008301 1778.904419,3695.544434 
	C1739.165161,3655.301270 1699.581543,3614.904297 1659.930908,3574.573486 
	C1657.127563,3571.721924 1654.348999,3568.845947 1651.527954,3566.011963 
	C1584.288452,3498.460449 1517.020264,3430.937744 1449.810791,3363.356445 
	C1410.803833,3324.134033 1371.869995,3284.838867 1332.937378,3245.542480 
	C1259.766602,3171.686768 1186.643555,3097.783936 1113.457642,3023.943115 
	C1038.390991,2948.204590 963.245911,2872.543457 888.185852,2796.798584 
	C816.002686,2723.956055 743.877563,2651.056396 671.760254,2578.148926 
	C668.562256,2574.915527 665.695068,2571.354980 662.158569,2567.365967 
	C665.432312,2563.738525 667.850830,2560.686279 670.639587,2558.021484 
	C922.885986,2317.000732 1175.159546,2076.008789 1427.467285,1835.052124 
	C1428.364746,1834.194946 1429.744019,1833.775635 1430.968872,1833.360596 
	C1431.457275,1833.194946 1432.137939,1833.596558 1432.731079,1833.739990 
	C1433.285156,1834.110596 1434.021484,1834.367798 1434.342285,1834.883545 
	C1434.663086,1835.399170 1434.603149,1836.170898 1434.648438,1836.834473 
	C1434.739014,1838.162720 1434.821289,1839.493164 1434.845581,1840.823853 
	C1434.882080,1842.822998 1434.870728,1844.822998 1434.870728,1846.822632 
	C1434.873047,2252.759521 1434.874634,2658.696289 1434.876709,3064.633057 
	C1434.876709,3065.299561 1434.882446,3065.966309 1434.886719,3066.632812 
	C1434.890991,3067.299316 1434.883057,3067.966309 1434.905029,3068.632324 
	C1434.948853,3069.964355 1434.970825,3071.299316 1435.079346,3072.626709 
	C1435.132935,3073.281250 1435.346313,3073.925293 1435.509766,3074.568115 
	C1435.674072,3075.214111 1435.866455,3075.852539 1436.373901,3077.661133 
	C1439.557373,3078.257568 1443.245972,3079.346436 1446.984375,3079.558838 
	C1452.964355,3079.898193 1458.977417,3079.659912 1464.976440,3079.659912 
	C1996.893677,3079.660645 2528.810791,3079.637207 3060.728027,3079.726074 
	C3089.421387,3079.730957 3080.577148,3076.081787 3100.499756,3095.963623 
	C3200.051025,3195.313965 3299.523438,3294.743408 3398.881104,3394.287109 
	C3545.789307,3541.470703 3692.582031,3688.770020 3839.395020,3836.048584 
	C3843.489014,3840.155762 3847.257324,3844.587891 3850.877930,3848.541016 
	C3850.117676,3850.166504 3849.964844,3850.906982 3849.514648,3851.333496 
	C3849.103027,3851.723877 3848.369873,3851.950439 3847.778564,3851.950684 
	C3533.852295,3852.097412 3219.926270,3852.218262 2904.000000,3852.339355 
z"/>
<path fill="#00CF7A" opacity="1.000000" stroke="none" 
	d="
M3370.311768,1453.691162 
	C3454.843018,1538.936768 3538.383301,1623.173706 3621.901611,1707.432373 
	C3649.584229,1735.360840 3677.176514,1763.379028 3704.870605,1791.296143 
	C3750.873779,1837.669678 3796.935303,1883.985352 3842.939209,1930.358154 
	C3846.658447,1934.107178 3850.120850,1938.110962 3854.525879,1942.889160 
	C3850.918213,1947.189941 3847.957764,1951.516479 3844.232178,1955.032227 
	C3818.113525,1979.681152 3791.666992,2003.984619 3765.667969,2028.758301 
	C3747.365967,2046.197510 3729.809814,2064.417725 3711.558838,2081.912354 
	C3669.238281,2122.479004 3626.662598,2162.779541 3584.261719,2203.262695 
	C3559.684326,2226.728271 3535.285156,2250.380127 3510.736328,2273.875488 
	C3449.682861,2332.308594 3388.609375,2390.720703 3327.503906,2449.099121 
	C3300.120605,2475.260254 3272.590088,2501.267334 3245.216064,2527.437744 
	C3196.651855,2573.866211 3148.167236,2620.378662 3099.611084,2666.815430 
	C3095.409912,2670.833496 3090.922607,2674.552490 3086.893311,2678.122314 
	C3081.631836,2675.713623 3083.097168,2671.935303 3082.958740,2668.955322 
	C3082.679932,2662.968750 3082.863281,2656.960449 3082.863281,2650.960938 
	C3082.862793,2252.994629 3082.869629,1855.028198 3082.815918,1457.061890 
	C3082.814697,1449.221924 3083.894287,1441.208740 3081.675781,1434.344360 
	C3080.061279,1433.310181 3079.558105,1432.902100 3078.986572,1432.644897 
	C3078.384033,1432.373779 3077.726562,1432.134766 3077.076172,1432.077759 
	C3075.091309,1431.904175 3073.098389,1431.723267 3071.108643,1431.723145 
	C2525.829834,1431.708496 1980.551147,1431.708862 1436.735962,1431.708862 
	C1434.648804,1431.067627 1433.991699,1430.945435 1433.411011,1430.665039 
	C1432.817139,1430.378174 1432.251587,1429.989258 1431.754517,1429.552856 
	C1429.755493,1427.799072 1427.698975,1426.098511 1425.821167,1424.220703 
	C1216.050659,1214.478516 1006.256531,1004.759949 796.568115,794.935669 
	C752.802612,751.141785 709.430359,706.954956 666.092773,663.167419 
	C667.399292,657.980591 671.192627,659.005249 674.237183,658.926880 
	C680.898987,658.755188 687.567993,658.857117 694.234070,658.857117 
	C1314.848145,658.856262 1935.462280,658.856323 2556.076416,658.856323 
	C2564.708740,658.856323 2573.341064,658.856323 2582.158203,658.856323 
	C2592.001953,668.666321 2601.480469,677.995789 2610.829346,687.453003 
	C2630.508789,707.359802 2650.050293,727.403503 2669.773926,747.266418 
	C2724.254395,802.131958 2778.820312,856.913086 2833.311768,911.767700 
	C2868.542480,947.233093 2903.705566,982.765442 2938.892334,1018.274414 
	C3016.238037,1096.328613 3093.581787,1174.385010 3170.922607,1252.444092 
	C3237.054932,1319.190552 3303.182373,1385.941895 3370.311768,1453.691162 
z"/>
</svg>